<svg xmlns="http://www.w3.org/2000/svg" xmlns:xlink="http://www.w3.org/1999/xlink" width="272.57" height="280.089" viewBox="0 0 272.57 280.089">
    <defs>
        <clipPath id="clip-path">
            <path id="Path_10" data-name="Path 10" d="M89,181H267v49.363H89Zm0,0"/>
        </clipPath>
        <clipPath id="clip-path-2">
            <path id="Path_12" data-name="Path 12" d="M74.09,95H178V214H74.09Zm0,0"/>
        </clipPath>
        <clipPath id="clip-path-3">
            <path id="Path_15" data-name="Path 15" d="M137,40.469h83V174H137Zm0,0"/>
        </clipPath>
    </defs>
    <g id="logo5" transform="translate(-74.09 -40.469)">
        <g id="Group_3" data-name="Group 3">
            <g id="Group_2" data-name="Group 2" transform="translate(78.411 300.827)">
                <g id="Group_1" data-name="Group 1">
                    <path id="Path_1" data-name="Path 1" d="M.469,0,24.453-66.219H43.891L67.8,0H51.156L46.875-13.016H21.391L17.109,0Zm23.8-24.266H43.984L34.219-53.656h-.187Zm0,0" fill="#f5f5f5"/>
                </g>
            </g>
        </g>
        <g id="Group_6" data-name="Group 6">
            <g id="Group_5" data-name="Group 5" transform="translate(144.613 300.827)">
                <g id="Group_4" data-name="Group 4">
                    <path id="Path_2" data-name="Path 2" d="M5.109,0V-66.219h31.25a31.032,31.032,0,0,1,13.484,2.75A21.3,21.3,0,0,1,58.813-55.8a20.6,20.6,0,0,1,3.219,11.531,20.866,20.866,0,0,1-3.219,11.578A21.234,21.234,0,0,1,49.8-24.969a31.7,31.7,0,0,1-13.625,2.734H20.922V0ZM20.922-34.031H33.859q5.578,0,8.922-2.844a9.251,9.251,0,0,0,3.344-7.391,9.25,9.25,0,0,0-3.3-7.437q-3.3-2.795-8.969-2.8H20.922Zm0,0" fill="#f5f5f5"/>
                </g>
            </g>
        </g>
        <g id="Group_9" data-name="Group 9">
            <g id="Group_8" data-name="Group 8" transform="translate(206.444 300.827)">
                <g id="Group_7" data-name="Group 7">
                    <path id="Path_3" data-name="Path 3" d="M5.109,0V-66.219H21.016V0Zm0,0" fill="#f5f5f5"/>
                </g>
            </g>
        </g>
        <g id="Group_15" data-name="Group 15">
            <g id="Group_14" data-name="Group 14" transform="translate(254.607 300.827)">
                <g id="Group_13" data-name="Group 13">
                    <path id="Path_5" data-name="Path 5" d="M11.156,1.016a8.351,8.351,0,0,1-6-2.266A7.842,7.842,0,0,1,2.8-7.156a7.739,7.739,0,0,1,2.359-5.812,8.313,8.313,0,0,1,6-2.281,8.449,8.449,0,0,1,6.094,2.281,7.723,7.723,0,0,1,2.375,5.813A7.824,7.824,0,0,1,17.25-1.25,8.487,8.487,0,0,1,11.156,1.016Zm0,0" transform="translate(-24 1)" fill="#f5f5f5"/>
                </g>
            </g>
        </g>
        <g id="Group_18" data-name="Group 18">
            <g id="Group_17" data-name="Group 17" transform="translate(277.886 302.151)">
                <g id="Group_16" data-name="Group 16">
                    <path id="Path_6" data-name="Path 6" d="M1.578,0V-20.422H6.484V0Zm0,0" transform="translate(-24 1)" fill="#f5f5f5"/>
                </g>
            </g>
        </g>
        <g id="Group_21" data-name="Group 21">
            <g id="Group_20" data-name="Group 20" transform="translate(293.686 302.151)">
                <g id="Group_19" data-name="Group 19">
                    <path id="Path_7" data-name="Path 7" d="M1.578,0V-20.422H7.313L15.625-5.875h.063V-20.422h4.641V0H14.563L6.25-14.516H6.188V0Zm0,0" transform="translate(-24 1)" fill="#f5f5f5"/>
                </g>
            </g>
        </g>
        <g id="Group_24" data-name="Group 24">
            <g id="Group_23" data-name="Group 23" transform="translate(323.335 302.151)">
                <g id="Group_22" data-name="Group 22">
                    <path id="Path_8" data-name="Path 8" d="M11.922.719A12.285,12.285,0,0,1,6.063-.609a9.42,9.42,0,0,1-3.844-3.8A11.766,11.766,0,0,1,.859-10.2a12.389,12.389,0,0,1,1.281-5.812A9.149,9.149,0,0,1,5.8-19.8a11.265,11.265,0,0,1,5.578-1.328,10.623,10.623,0,0,1,4.516.922,8.391,8.391,0,0,1,3.281,2.609,8.524,8.524,0,0,1,1.641,4l-4.469,1.125a5.707,5.707,0,0,0-1.672-3.266,4.63,4.63,0,0,0-3.3-1.2,5.037,5.037,0,0,0-4.094,1.828A7.406,7.406,0,0,0,5.766-10.2a7.058,7.058,0,0,0,1.7,4.891A5.829,5.829,0,0,0,11.984-3.5a5.719,5.719,0,0,0,3.953-1.422,6.272,6.272,0,0,0,1.984-3.859l4.578.641a10.032,10.032,0,0,1-1.719,4.688A9.437,9.437,0,0,1,17.109-.375,11.766,11.766,0,0,1,11.922.719Zm0,0" transform="translate(-24 1)" fill="#f5f5f5"/>
                </g>
            </g>
        </g>
        <g id="Group_25" data-name="Group 25" clip-path="url(#clip-path)">
            <path id="Path_9" data-name="Path 9" d="M171.258,181.531h5.906v5.883h-5.906ZM89.242,230.363a463.344,463.344,0,0,1,177.43,0A249.938,249.938,0,0,0,89.242,230.363Zm89.508-48.832h5.906v5.883H178.75Zm5.906,7.457v5.883H178.75v-5.883Zm-7.492,5.883h-5.906v-5.883h5.906Zm0,0" fill="#e62129" fill-rule="evenodd"/>
        </g>
        <g id="Group_26" data-name="Group 26" clip-path="url(#clip-path-2)">
            <path id="Path_11" data-name="Path 11" d="M177.758,158.734,118.109,96l-7.492,17.141-29.43-8.273L89.1,144.52l-14.133,4.867,42.914,35.691q11.871,8.186,2.715,28.68A249.368,249.368,0,0,1,148.98,207.2V179.73l28.75-20.941Zm0,0" fill="#e62129" fill-rule="evenodd"/>
        </g>
        <path id="Path_13" data-name="Path 13" d="M198.68,173.961l8.227,5.992v27.473a248.676,248.676,0,0,1,28.383,6.555Q226.131,193.508,238,185.3l42.914-35.687-14.137-4.867L274.7,105.09l-29.43,8.3L237.777,96.25l-30.418,31.637-6,11.145L198.652,173.9Zm0,0" fill="#912e31" fill-rule="evenodd"/>
        <g id="Group_27" data-name="Group 27" clip-path="url(#clip-path-3)">
            <path id="Path_14" data-name="Path 14" d="M219.148,65.6,199.3,80.094,178.125,40.438,156.953,80.094,137.105,65.6l11.9,62.9,28.723,30.2,20.891,15.227q10.225-54.164,20.469-108.355Zm0,0" fill="#b5161b" fill-rule="evenodd"/>
        </g>
        <path id="Path_16" data-name="Path 16" d="M198.68,173.961l16.285-53.926-7.578,7.879Zm0,0" fill="rgba(0,0,0,0.23)" fill-rule="evenodd"/>
        <path id="Path_17" data-name="Path 17" d="M177.758,158.734l-30.785-41.207,2.063,10.977Zm0,0" fill="rgba(0,0,0,0.23)" fill-rule="evenodd"/>
        <g id="Group_30" data-name="Group 30">
            <g id="Group_29" data-name="Group 29" transform="translate(76.931 320.495)">
                <g id="Group_28" data-name="Group 28">
                    <path id="Path_18" data-name="Path 18" d="M4.5-1.094H1.922L1.5,0H-.047L2.5-5.891H4.047L6.531,0H4.922ZM4.063-2.219,3.219-4.406,2.359-2.219Zm0,0" fill="#f5f5f5"/>
                </g>
            </g>
        </g>
        <g id="Group_33" data-name="Group 33">
            <g id="Group_32" data-name="Group 32" transform="translate(85.804 320.495)">
                <g id="Group_31" data-name="Group 31">
                    <path id="Path_19" data-name="Path 19" d="M4.5-3H5.8V-.7a3.937,3.937,0,0,1-1.156.563,4.39,4.39,0,0,1-1.281.2A3.154,3.154,0,0,1,1.094-.8,2.864,2.864,0,0,1,.2-2.953a2.8,2.8,0,0,1,.922-2.141,3.323,3.323,0,0,1,2.328-.859,3.606,3.606,0,0,1,1.3.25,3.352,3.352,0,0,1,1.109.641L5.016-4.047a2.459,2.459,0,0,0-.734-.469,2.247,2.247,0,0,0-.844-.172,1.659,1.659,0,0,0-1.219.5,1.706,1.706,0,0,0-.484,1.234,1.738,1.738,0,0,0,.5,1.266,1.661,1.661,0,0,0,1.234.5A2.333,2.333,0,0,0,4.5-1.469Zm0,0" fill="#f5f5f5"/>
                </g>
            </g>
        </g>
        <g id="Group_36" data-name="Group 36">
            <g id="Group_35" data-name="Group 35" transform="translate(94.449 320.495)">
                <g id="Group_34" data-name="Group 34">
                    <path id="Path_20" data-name="Path 20" d="M5.2-4.719H2.094v1.172H4.906v1.188H2.094v1.188H5.3V0H.594V-5.891H5.2Zm0,0" fill="#f5f5f5"/>
                </g>
            </g>
        </g>
        <g id="Group_39" data-name="Group 39">
            <g id="Group_38" data-name="Group 38" transform="translate(102.513 320.495)">
                <g id="Group_37" data-name="Group 37">
                    <path id="Path_21" data-name="Path 21" d="M6.031,0H4.7L2-3.625V0H.594V-5.891H1.906L4.625-2.25V-5.891H6.031Zm0,0" fill="#f5f5f5"/>
                </g>
            </g>
        </g>
        <g id="Group_42" data-name="Group 42">
            <g id="Group_41" data-name="Group 41" transform="translate(111.52 320.495)">
                <g id="Group_40" data-name="Group 40">
                    <path id="Path_22" data-name="Path 22" d="M3.359-5.953a3.1,3.1,0,0,1,1.281.281,3.435,3.435,0,0,1,1.094.719L4.859-3.922a2.039,2.039,0,0,0-.687-.562,1.826,1.826,0,0,0-.8-.2,1.544,1.544,0,0,0-1.172.5,1.669,1.669,0,0,0-.469,1.2A1.755,1.755,0,0,0,2.2-1.734a1.559,1.559,0,0,0,1.172.484,1.855,1.855,0,0,0,.766-.172,2.385,2.385,0,0,0,.719-.516l.875.922a3.616,3.616,0,0,1-1.141.8A3.208,3.208,0,0,1,3.3.063,3.062,3.062,0,0,1,1.078-.8,2.933,2.933,0,0,1,.2-2.969a2.837,2.837,0,0,1,.891-2.125A3.17,3.17,0,0,1,3.359-5.953Zm0,0" fill="#f5f5f5"/>
                </g>
            </g>
        </g>
        <g id="Group_45" data-name="Group 45">
            <g id="Group_44" data-name="Group 44" transform="translate(119.736 320.495)">
                <g id="Group_43" data-name="Group 43">
                    <path id="Path_23" data-name="Path 23" d="M5.2-4.719H2.094v1.172H4.906v1.188H2.094v1.188H5.3V0H.594V-5.891H5.2Zm0,0" fill="#f5f5f5"/>
                </g>
            </g>
        </g>
        <g id="Group_48" data-name="Group 48">
            <g id="Group_47" data-name="Group 47" transform="translate(132.144 320.495)">
                <g id="Group_46" data-name="Group 46">
                    <path id="Path_24" data-name="Path 24" d="M.594-5.891H3.125a3.157,3.157,0,0,1,2.25.813A2.772,2.772,0,0,1,6.25-2.953,2.788,2.788,0,0,1,5.359-.812,3.244,3.244,0,0,1,3.063,0H.594ZM2.094-4.7v3.5H3.156a1.447,1.447,0,0,0,1.125-.484,1.756,1.756,0,0,0,.453-1.25A1.747,1.747,0,0,0,4.266-4.2a1.521,1.521,0,0,0-1.172-.5Zm0,0" fill="#f5f5f5"/>
                </g>
            </g>
        </g>
        <g id="Group_51" data-name="Group 51">
            <g id="Group_50" data-name="Group 50" transform="translate(140.992 320.495)">
                <g id="Group_49" data-name="Group 49">
                    <path id="Path_25" data-name="Path 25" d="M5.2-4.719H2.094v1.172H4.906v1.188H2.094v1.188H5.3V0H.594V-5.891H5.2Zm0,0" fill="#f5f5f5"/>
                </g>
            </g>
        </g>
        <g id="Group_54" data-name="Group 54">
            <g id="Group_53" data-name="Group 53" transform="translate(153.4 320.495)">
                <g id="Group_52" data-name="Group 52">
                    <path id="Path_26" data-name="Path 26" d="M.594-5.891H3.156a2.638,2.638,0,0,1,1.75.531,1.889,1.889,0,0,1,.625,1.516,2.107,2.107,0,0,1-.625,1.625,2.526,2.526,0,0,1-1.75.563H2.094V0H.594Zm1.5,1.172v1.875h.984a1.129,1.129,0,0,0,.766-.234A.908.908,0,0,0,4.125-3.8a.846.846,0,0,0-.281-.687,1.129,1.129,0,0,0-.766-.234Zm0,0" fill="#f5f5f5"/>
                </g>
            </g>
        </g>
        <g id="Group_57" data-name="Group 57">
            <g id="Group_56" data-name="Group 56" transform="translate(161.515 320.495)">
                <g id="Group_55" data-name="Group 55">
                    <path id="Path_27" data-name="Path 27" d="M2.094-1.25h2.5V0h-4V-5.891h1.5Zm0,0" fill="#f5f5f5"/>
                </g>
            </g>
        </g>
        <g id="Group_60" data-name="Group 60">
            <g id="Group_59" data-name="Group 59" transform="translate(168.62 320.495)">
                <g id="Group_58" data-name="Group 58">
                    <path id="Path_28" data-name="Path 28" d="M4.5-1.094H1.922L1.5,0H-.047L2.5-5.891H4.047L6.531,0H4.922ZM4.063-2.219,3.219-4.406,2.359-2.219Zm0,0" fill="#f5f5f5"/>
                </g>
            </g>
        </g>
        <g id="Group_63" data-name="Group 63">
            <g id="Group_62" data-name="Group 62" transform="translate(177.492 320.495)">
                <g id="Group_61" data-name="Group 61">
                    <path id="Path_29" data-name="Path 29" d="M3.359-5.953a3.1,3.1,0,0,1,1.281.281,3.435,3.435,0,0,1,1.094.719L4.859-3.922a2.039,2.039,0,0,0-.687-.562,1.826,1.826,0,0,0-.8-.2,1.544,1.544,0,0,0-1.172.5,1.669,1.669,0,0,0-.469,1.2A1.755,1.755,0,0,0,2.2-1.734a1.559,1.559,0,0,0,1.172.484,1.855,1.855,0,0,0,.766-.172,2.385,2.385,0,0,0,.719-.516l.875.922a3.616,3.616,0,0,1-1.141.8A3.208,3.208,0,0,1,3.3.063,3.062,3.062,0,0,1,1.078-.8,2.933,2.933,0,0,1,.2-2.969a2.837,2.837,0,0,1,.891-2.125A3.17,3.17,0,0,1,3.359-5.953Zm0,0" fill="#f5f5f5"/>
                </g>
            </g>
        </g>
        <g id="Group_66" data-name="Group 66">
            <g id="Group_65" data-name="Group 65" transform="translate(185.708 320.495)">
                <g id="Group_64" data-name="Group 64">
                    <path id="Path_30" data-name="Path 30" d="M5.2-4.719H2.094v1.172H4.906v1.188H2.094v1.188H5.3V0H.594V-5.891H5.2Zm0,0" fill="#f5f5f5"/>
                </g>
            </g>
        </g>
        <g id="Group_69" data-name="Group 69">
            <g id="Group_68" data-name="Group 68" transform="translate(193.772 320.495)">
                <g id="Group_67" data-name="Group 67">
                    <path id="Path_31" data-name="Path 31" d="M7.063,0H5.75L5.734-3.828,4.328-.594H3.344L1.922-3.828V0H.594V-5.906H2.234L3.828-2.391,5.438-5.906H7.063Zm0,0" fill="#f5f5f5"/>
                </g>
            </g>
        </g>
        <g id="Group_72" data-name="Group 72">
            <g id="Group_71" data-name="Group 71" transform="translate(203.823 320.495)">
                <g id="Group_70" data-name="Group 70">
                    <path id="Path_32" data-name="Path 32" d="M5.2-4.719H2.094v1.172H4.906v1.188H2.094v1.188H5.3V0H.594V-5.891H5.2Zm0,0" fill="#f5f5f5"/>
                </g>
            </g>
        </g>
        <g id="Group_75" data-name="Group 75">
            <g id="Group_74" data-name="Group 74" transform="translate(211.888 320.495)">
                <g id="Group_73" data-name="Group 73">
                    <path id="Path_33" data-name="Path 33" d="M6.031,0H4.7L2-3.625V0H.594V-5.891H1.906L4.625-2.25V-5.891H6.031Zm0,0" fill="#f5f5f5"/>
                </g>
            </g>
        </g>
        <g id="Group_78" data-name="Group 78">
            <g id="Group_77" data-name="Group 77" transform="translate(220.895 320.495)">
                <g id="Group_76" data-name="Group 76">
                    <path id="Path_34" data-name="Path 34" d="M5.094-4.687H3.313V0h-1.5V-4.687H.063V-5.906H5.094Zm0,0" fill="#f5f5f5"/>
                </g>
            </g>
        </g>
        <g id="Group_81" data-name="Group 81">
            <g id="Group_80" data-name="Group 80" transform="translate(232.615 320.495)">
                <g id="Group_79" data-name="Group 79">
                    <path id="Path_35" data-name="Path 35" d="M5.2-4.719H2.094v1.172H4.906v1.188H2.094v1.188H5.3V0H.594V-5.891H5.2Zm0,0" fill="#f5f5f5"/>
                </g>
            </g>
        </g>
        <g id="Group_84" data-name="Group 84">
            <g id="Group_83" data-name="Group 83" transform="translate(240.679 320.495)">
                <g id="Group_82" data-name="Group 82">
                    <path id="Path_36" data-name="Path 36" d="M5.094-4.687H3.313V0h-1.5V-4.687H.063V-5.906H5.094Zm0,0" fill="#f5f5f5"/>
                </g>
            </g>
        </g>
        <g id="Group_87" data-name="Group 87">
            <g id="Group_86" data-name="Group 86" transform="translate(249.916 320.495)">
                <g id="Group_85" data-name="Group 85">
                    <path id="Path_37" data-name="Path 37" d="M.594-5.891H3.125a3.157,3.157,0,0,1,2.25.813A2.772,2.772,0,0,1,6.25-2.953,2.788,2.788,0,0,1,5.359-.812,3.244,3.244,0,0,1,3.063,0H.594ZM2.094-4.7v3.5H3.156a1.447,1.447,0,0,0,1.125-.484,1.756,1.756,0,0,0,.453-1.25A1.747,1.747,0,0,0,4.266-4.2a1.521,1.521,0,0,0-1.172-.5Zm0,0" fill="#f5f5f5"/>
                </g>
            </g>
        </g>
        <g id="Group_90" data-name="Group 90">
            <g id="Group_89" data-name="Group 89" transform="translate(258.764 320.495)">
                <g id="Group_88" data-name="Group 88">
                    <path id="Path_38" data-name="Path 38" d="M1.031-5.906a.692.692,0,0,1,.484.188.659.659,0,0,1,.2.5.953.953,0,0,1-.187.563l-.609.891H.234l.375-.891A.613.613,0,0,1,.328-5.2a.678.678,0,0,1,.188-.5A.7.7,0,0,1,1.031-5.906Zm0,0" fill="#f5f5f5"/>
                </g>
            </g>
        </g>
        <g id="Group_93" data-name="Group 93">
            <g id="Group_92" data-name="Group 92" transform="translate(263.183 320.495)">
                <g id="Group_91" data-name="Group 91">
                    <path id="Path_39" data-name="Path 39" d="M2.094,0H.594V-5.891h1.5Zm0,0" fill="#f5f5f5"/>
                </g>
            </g>
        </g>
        <g id="Group_96" data-name="Group 96">
            <g id="Group_95" data-name="Group 95" transform="translate(268.251 320.495)">
                <g id="Group_94" data-name="Group 94">
                    <path id="Path_40" data-name="Path 40" d="M6.031,0H4.7L2-3.625V0H.594V-5.891H1.906L4.625-2.25V-5.891H6.031Zm0,0" fill="#f5f5f5"/>
                </g>
            </g>
        </g>
        <g id="Group_99" data-name="Group 99">
            <g id="Group_98" data-name="Group 98" transform="translate(277.258 320.495)">
                <g id="Group_97" data-name="Group 97">
                    <path id="Path_41" data-name="Path 41" d="M5.094-4.687H3.313V0h-1.5V-4.687H.063V-5.906H5.094Zm0,0" fill="#f5f5f5"/>
                </g>
            </g>
        </g>
        <g id="Group_102" data-name="Group 102">
            <g id="Group_101" data-name="Group 101" transform="translate(284.792 320.495)">
                <g id="Group_100" data-name="Group 100">
                    <path id="Path_42" data-name="Path 42" d="M4.391-7.359,3.3-6.406H2.188l.891-1.422ZM5.2-4.719H2.094v1.172H4.906v1.188H2.094v1.188H5.3V0H.594V-5.891H5.2Zm0,0" fill="#f5f5f5"/>
                </g>
            </g>
        </g>
        <g id="Group_105" data-name="Group 105">
            <g id="Group_104" data-name="Group 104" transform="translate(292.856 320.495)">
                <g id="Group_103" data-name="Group 103">
                    <path id="Path_43" data-name="Path 43" d="M4.5-3H5.8V-.7a3.937,3.937,0,0,1-1.156.563,4.39,4.39,0,0,1-1.281.2A3.154,3.154,0,0,1,1.094-.8,2.864,2.864,0,0,1,.2-2.953a2.8,2.8,0,0,1,.922-2.141,3.323,3.323,0,0,1,2.328-.859,3.606,3.606,0,0,1,1.3.25,3.352,3.352,0,0,1,1.109.641L5.016-4.047a2.459,2.459,0,0,0-.734-.469,2.247,2.247,0,0,0-.844-.172,1.659,1.659,0,0,0-1.219.5,1.706,1.706,0,0,0-.484,1.234,1.738,1.738,0,0,0,.5,1.266,1.661,1.661,0,0,0,1.234.5A2.333,2.333,0,0,0,4.5-1.469Zm0,0" fill="#f5f5f5"/>
                </g>
            </g>
        </g>
        <g id="Group_108" data-name="Group 108">
            <g id="Group_107" data-name="Group 107" transform="translate(301.502 320.495)">
                <g id="Group_106" data-name="Group 106">
                    <path id="Path_44" data-name="Path 44" d="M4.141,0,3.266-1.656H2.094V0H.594V-5.891H3.219a2.785,2.785,0,0,1,1.813.531,1.863,1.863,0,0,1,.641,1.516A1.911,1.911,0,0,1,4.609-1.953L5.844,0ZM2.094-2.844H3.219a1.129,1.129,0,0,0,.766-.234A.94.94,0,0,0,4.25-3.8a.875.875,0,0,0-.266-.687,1.129,1.129,0,0,0-.766-.234H2.094Zm0,0" fill="#f5f5f5"/>
                </g>
            </g>
        </g>
        <g id="Group_111" data-name="Group 111">
            <g id="Group_110" data-name="Group 110" transform="translate(309.987 320.495)">
                <g id="Group_109" data-name="Group 109">
                    <path id="Path_45" data-name="Path 45" d="M4.5-1.094H1.922L1.5,0H-.047L2.5-5.891H4.047L6.531,0H4.922ZM4.063-2.219,3.219-4.406,2.359-2.219Zm0,0" fill="#f5f5f5"/>
                </g>
            </g>
        </g>
        <g id="Group_114" data-name="Group 114">
            <g id="Group_113" data-name="Group 113" transform="translate(318.859 320.495)">
                <g id="Group_112" data-name="Group 112">
                    <path id="Path_46" data-name="Path 46" d="M5.094-4.687H3.313V0h-1.5V-4.687H.063V-5.906H5.094Zm0,0" fill="#f5f5f5"/>
                </g>
            </g>
        </g>
        <g id="Group_117" data-name="Group 117">
            <g id="Group_116" data-name="Group 116" transform="translate(326.393 320.495)">
                <g id="Group_115" data-name="Group 115">
                    <path id="Path_47" data-name="Path 47" d="M2.094,0H.594V-5.891h1.5Zm0,0" fill="#f5f5f5"/>
                </g>
            </g>
        </g>
        <g id="Group_120" data-name="Group 120">
            <g id="Group_119" data-name="Group 119" transform="translate(331.461 320.495)">
                <g id="Group_118" data-name="Group 118">
                    <path id="Path_48" data-name="Path 48" d="M3.391-5.953a3.2,3.2,0,0,1,2.281.859,2.844,2.844,0,0,1,.906,2.141A2.856,2.856,0,0,1,5.656-.8,3.185,3.185,0,0,1,3.375.063,3.154,3.154,0,0,1,1.109-.8,2.835,2.835,0,0,1,.2-2.953a2.8,2.8,0,0,1,.906-2.141A3.189,3.189,0,0,1,3.391-5.953Zm.016,1.266a1.621,1.621,0,0,0-1.187.5,1.724,1.724,0,0,0-.484,1.25,1.749,1.749,0,0,0,.484,1.25,1.591,1.591,0,0,0,1.172.5,1.515,1.515,0,0,0,1.156-.5,1.766,1.766,0,0,0,.484-1.25,1.74,1.74,0,0,0-.484-1.25A1.513,1.513,0,0,0,3.406-4.687Zm0,0" fill="#f5f5f5"/>
                </g>
            </g>
        </g>
        <g id="Group_123" data-name="Group 123">
            <g id="Group_122" data-name="Group 122" transform="translate(340.628 320.495)">
                <g id="Group_121" data-name="Group 121">
                    <path id="Path_49" data-name="Path 49" d="M6.031,0H4.7L2-3.625V0H.594V-5.891H1.906L4.625-2.25V-5.891H6.031Zm0,0" fill="#f5f5f5"/>
                </g>
            </g>
        </g>
    </g>
</svg>
