<svg xmlns="http://www.w3.org/2000/svg" xmlns:xlink="http://www.w3.org/1999/xlink" width="500" zoomAndPan="magnify" viewBox="0 0 375 374.999991" height="500" preserveAspectRatio="xMidYMid meet" version="1.0"><defs><g/><clipPath id="b653b93045"><path d="M 89 181 L 267 181 L 267 230.363281 L 89 230.363281 Z M 89 181 " clip-rule="nonzero"/></clipPath><clipPath id="3f074877d3"><path d="M 74.089844 95 L 178 95 L 178 214 L 74.089844 214 Z M 74.089844 95 " clip-rule="nonzero"/></clipPath><clipPath id="ec3de049bb"><path d="M 137 40.46875 L 220 40.46875 L 220 174 L 137 174 Z M 137 40.46875 " clip-rule="nonzero"/></clipPath></defs><rect x="-37.5" width="450" fill="#ffffff" y="-37.499999" height="449.999989" fill-opacity="1"/><rect x="-37.5" width="450" fill="#ffffff" y="-37.499999" height="449.999989" fill-opacity="1"/><g fill="#004aad" fill-opacity="1"><g transform="translate(78.41097, 300.827288)"><g><path d="M 0.46875 0 L 24.453125 -66.21875 L 43.890625 -66.21875 L 67.796875 0 L 51.15625 0 L 46.875 -13.015625 L 21.390625 -13.015625 L 17.109375 0 Z M 24.265625 -24.265625 L 43.984375 -24.265625 L 34.21875 -53.65625 L 34.03125 -53.65625 Z M 24.265625 -24.265625 "/></g></g></g><g fill="#004aad" fill-opacity="1"><g transform="translate(144.612569, 300.827288)"><g><path d="M 5.109375 0 L 5.109375 -66.21875 L 36.359375 -66.21875 C 41.503906 -66.21875 46 -65.300781 49.84375 -63.46875 C 53.6875 -61.644531 56.675781 -59.085938 58.8125 -55.796875 C 60.957031 -52.515625 62.03125 -48.671875 62.03125 -44.265625 C 62.03125 -39.867188 60.957031 -36.007812 58.8125 -32.6875 C 56.675781 -29.375 53.671875 -26.800781 49.796875 -24.96875 C 45.921875 -23.144531 41.378906 -22.234375 36.171875 -22.234375 L 20.921875 -22.234375 L 20.921875 0 Z M 20.921875 -34.03125 L 33.859375 -34.03125 C 37.578125 -34.03125 40.550781 -34.976562 42.78125 -36.875 C 45.007812 -38.769531 46.125 -41.234375 46.125 -44.265625 C 46.125 -47.367188 45.023438 -49.847656 42.828125 -51.703125 C 40.628906 -53.566406 37.640625 -54.5 33.859375 -54.5 L 20.921875 -54.5 Z M 20.921875 -34.03125 "/></g></g></g><g fill="#004aad" fill-opacity="1"><g transform="translate(206.444084, 300.827288)"><g><path d="M 5.109375 0 L 5.109375 -66.21875 L 21.015625 -66.21875 L 21.015625 0 Z M 5.109375 0 "/></g></g></g><g fill="#004aad" fill-opacity="1"><g transform="translate(230.525527, 300.827288)"><g><path d="M 5.109375 0 L 5.109375 -66.21875 L 21.015625 -66.21875 L 21.015625 0 Z M 5.109375 0 "/></g></g></g><g fill="#004aad" fill-opacity="1"><g transform="translate(254.606979, 300.827288)"><g><path d="M 11.15625 1.015625 C 8.738281 1.015625 6.738281 0.257812 5.15625 -1.25 C 3.582031 -2.769531 2.796875 -4.738281 2.796875 -7.15625 C 2.796875 -9.507812 3.582031 -11.445312 5.15625 -12.96875 C 6.738281 -14.488281 8.738281 -15.25 11.15625 -15.25 C 13.632812 -15.25 15.664062 -14.488281 17.25 -12.96875 C 18.832031 -11.445312 19.625 -9.507812 19.625 -7.15625 C 19.625 -4.738281 18.832031 -2.769531 17.25 -1.25 C 15.664062 0.257812 13.632812 1.015625 11.15625 1.015625 Z M 11.15625 1.015625 "/></g></g></g><g fill="#e62129" fill-opacity="1"><g transform="translate(277.886011, 302.151447)"><g><path d="M 1.578125 0 L 1.578125 -20.421875 L 6.484375 -20.421875 L 6.484375 0 Z M 1.578125 0 "/></g></g></g><g fill="#e62129" fill-opacity="1"><g transform="translate(293.686193, 302.151447)"><g><path d="M 1.578125 0 L 1.578125 -20.421875 L 7.3125 -20.421875 L 15.625 -5.875 L 15.6875 -5.875 L 15.6875 -20.421875 L 20.328125 -20.421875 L 20.328125 0 L 14.5625 0 L 6.25 -14.515625 L 6.1875 -14.515625 L 6.1875 0 Z M 1.578125 0 "/></g></g></g><g fill="#e62129" fill-opacity="1"><g transform="translate(323.334497, 302.151447)"><g><path d="M 11.921875 0.71875 C 9.671875 0.71875 7.71875 0.273438 6.0625 -0.609375 C 4.40625 -1.503906 3.125 -2.769531 2.21875 -4.40625 C 1.3125 -6.039062 0.859375 -7.972656 0.859375 -10.203125 C 0.859375 -12.441406 1.285156 -14.378906 2.140625 -16.015625 C 3.003906 -17.648438 4.222656 -18.910156 5.796875 -19.796875 C 7.378906 -20.679688 9.238281 -21.125 11.375 -21.125 C 13.0625 -21.125 14.566406 -20.816406 15.890625 -20.203125 C 17.222656 -19.597656 18.316406 -18.726562 19.171875 -17.59375 C 20.035156 -16.46875 20.582031 -15.132812 20.8125 -13.59375 L 16.34375 -12.46875 C 16.09375 -13.84375 15.535156 -14.929688 14.671875 -15.734375 C 13.816406 -16.535156 12.71875 -16.9375 11.375 -16.9375 C 9.65625 -16.9375 8.289062 -16.328125 7.28125 -15.109375 C 6.269531 -13.898438 5.765625 -12.265625 5.765625 -10.203125 C 5.785156 -8.160156 6.351562 -6.53125 7.46875 -5.3125 C 8.582031 -4.101562 10.085938 -3.5 11.984375 -3.5 C 13.554688 -3.5 14.875 -3.972656 15.9375 -4.921875 C 17.007812 -5.878906 17.671875 -7.164062 17.921875 -8.78125 L 22.5 -8.140625 C 22.289062 -6.347656 21.71875 -4.785156 20.78125 -3.453125 C 19.84375 -2.128906 18.617188 -1.101562 17.109375 -0.375 C 15.609375 0.351562 13.878906 0.71875 11.921875 0.71875 Z M 11.921875 0.71875 "/></g></g></g><g clip-path="url(#b653b93045)"><path fill="#e62129" d="M 171.257812 181.53125 L 177.164062 181.53125 L 177.164062 187.414062 L 171.257812 187.414062 Z M 89.242188 230.363281 C 147.480469 218.933594 208.433594 218.933594 266.671875 230.363281 C 209.28125 208.664062 146.632812 208.664062 89.242188 230.363281 Z M 178.75 181.53125 L 184.65625 181.53125 L 184.65625 187.414062 L 178.75 187.414062 Z M 184.65625 188.988281 L 184.65625 194.871094 L 178.75 194.871094 L 178.75 188.988281 Z M 177.164062 194.871094 L 171.257812 194.871094 L 171.257812 188.988281 L 177.164062 188.988281 Z M 177.164062 194.871094 " fill-opacity="1" fill-rule="evenodd"/></g><g clip-path="url(#3f074877d3)"><path fill="#e62129" d="M 177.757812 158.734375 L 118.109375 95.996094 L 110.617188 113.136719 L 81.1875 104.863281 L 89.101562 144.519531 L 74.96875 149.386719 L 117.882812 185.078125 C 125.796875 190.535156 126.675781 200.078125 120.597656 213.757812 C 130.519531 210.886719 139.988281 208.691406 148.980469 207.199219 L 148.980469 179.730469 L 177.730469 158.789062 Z M 177.757812 158.734375 " fill-opacity="1" fill-rule="evenodd"/></g><path fill="#912e31" d="M 198.679688 173.960938 L 206.90625 179.953125 L 206.90625 207.425781 C 215.894531 208.914062 225.367188 211.109375 235.289062 213.980469 C 229.183594 200.332031 230.089844 190.761719 238.003906 185.300781 L 280.917969 149.613281 L 266.78125 144.746094 L 274.699219 105.089844 L 245.269531 113.390625 L 237.777344 96.25 L 207.359375 127.886719 L 201.363281 139.03125 L 198.652344 173.902344 Z M 198.679688 173.960938 " fill-opacity="1" fill-rule="evenodd"/><g clip-path="url(#ec3de049bb)"><path fill="#b5161b" d="M 219.148438 65.601562 L 199.300781 80.09375 L 178.125 40.4375 L 156.953125 80.09375 L 137.105469 65.601562 L 149.007812 128.503906 L 177.730469 158.703125 L 198.621094 173.929688 C 205.4375 137.820312 212.277344 101.710938 219.089844 65.574219 Z M 219.148438 65.601562 " fill-opacity="1" fill-rule="evenodd"/></g><path fill="#000000" d="M 198.679688 173.960938 L 214.964844 120.035156 L 207.386719 127.914062 Z M 198.679688 173.960938 " fill-opacity="0.231" fill-rule="evenodd"/><path fill="#000000" d="M 177.757812 158.734375 L 146.972656 117.527344 L 149.035156 128.503906 Z M 177.757812 158.734375 " fill-opacity="0.231" fill-rule="evenodd"/><g fill="#d62a2e" fill-opacity="1"><g transform="translate(76.931029, 320.495425)"><g><path d="M 4.5 -1.09375 L 1.921875 -1.09375 L 1.5 0 L -0.046875 0 L 2.5 -5.890625 L 4.046875 -5.890625 L 6.53125 0 L 4.921875 0 Z M 4.0625 -2.21875 L 3.21875 -4.40625 L 2.359375 -2.21875 Z M 4.0625 -2.21875 "/></g></g></g><g fill="#d62a2e" fill-opacity="1"><g transform="translate(85.803569, 320.495425)"><g><path d="M 4.5 -3 L 5.796875 -3 L 5.796875 -0.703125 C 5.484375 -0.472656 5.097656 -0.285156 4.640625 -0.140625 C 4.191406 -0.00390625 3.765625 0.0625 3.359375 0.0625 C 2.453125 0.0625 1.695312 -0.222656 1.09375 -0.796875 C 0.5 -1.367188 0.203125 -2.085938 0.203125 -2.953125 C 0.203125 -3.804688 0.507812 -4.519531 1.125 -5.09375 C 1.75 -5.664062 2.523438 -5.953125 3.453125 -5.953125 C 3.890625 -5.953125 4.320312 -5.867188 4.75 -5.703125 C 5.1875 -5.546875 5.554688 -5.332031 5.859375 -5.0625 L 5.015625 -4.046875 C 4.804688 -4.242188 4.5625 -4.398438 4.28125 -4.515625 C 4 -4.628906 3.71875 -4.6875 3.4375 -4.6875 C 2.957031 -4.6875 2.550781 -4.519531 2.21875 -4.1875 C 1.894531 -3.851562 1.734375 -3.441406 1.734375 -2.953125 C 1.734375 -2.453125 1.898438 -2.03125 2.234375 -1.6875 C 2.566406 -1.351562 2.976562 -1.1875 3.46875 -1.1875 C 3.78125 -1.1875 4.125 -1.28125 4.5 -1.46875 Z M 4.5 -3 "/></g></g></g><g fill="#d62a2e" fill-opacity="1"><g transform="translate(94.448821, 320.495425)"><g><path d="M 5.203125 -4.71875 L 2.09375 -4.71875 L 2.09375 -3.546875 L 4.90625 -3.546875 L 4.90625 -2.359375 L 2.09375 -2.359375 L 2.09375 -1.171875 L 5.296875 -1.171875 L 5.296875 0 L 0.59375 0 L 0.59375 -5.890625 L 5.203125 -5.890625 Z M 5.203125 -4.71875 "/></g></g></g><g fill="#d62a2e" fill-opacity="1"><g transform="translate(102.513234, 320.495425)"><g><path d="M 6.03125 0 L 4.703125 0 L 2 -3.625 L 2 0 L 0.59375 0 L 0.59375 -5.890625 L 1.90625 -5.890625 L 4.625 -2.25 L 4.625 -5.890625 L 6.03125 -5.890625 Z M 6.03125 0 "/></g></g></g><g fill="#d62a2e" fill-opacity="1"><g transform="translate(111.520462, 320.495425)"><g><path d="M 3.359375 -5.953125 C 3.796875 -5.953125 4.222656 -5.859375 4.640625 -5.671875 C 5.066406 -5.492188 5.429688 -5.253906 5.734375 -4.953125 L 4.859375 -3.921875 C 4.671875 -4.160156 4.441406 -4.347656 4.171875 -4.484375 C 3.898438 -4.617188 3.632812 -4.6875 3.375 -4.6875 C 2.90625 -4.6875 2.515625 -4.519531 2.203125 -4.1875 C 1.890625 -3.863281 1.734375 -3.460938 1.734375 -2.984375 C 1.734375 -2.484375 1.890625 -2.066406 2.203125 -1.734375 C 2.515625 -1.410156 2.90625 -1.25 3.375 -1.25 C 3.625 -1.25 3.878906 -1.304688 4.140625 -1.421875 C 4.410156 -1.546875 4.648438 -1.71875 4.859375 -1.9375 L 5.734375 -1.015625 C 5.410156 -0.679688 5.03125 -0.414062 4.59375 -0.21875 C 4.164062 -0.03125 3.734375 0.0625 3.296875 0.0625 C 2.410156 0.0625 1.671875 -0.222656 1.078125 -0.796875 C 0.492188 -1.378906 0.203125 -2.101562 0.203125 -2.96875 C 0.203125 -3.8125 0.5 -4.519531 1.09375 -5.09375 C 1.695312 -5.664062 2.453125 -5.953125 3.359375 -5.953125 Z M 3.359375 -5.953125 "/></g></g></g><g fill="#d62a2e" fill-opacity="1"><g transform="translate(119.736401, 320.495425)"><g><path d="M 5.203125 -4.71875 L 2.09375 -4.71875 L 2.09375 -3.546875 L 4.90625 -3.546875 L 4.90625 -2.359375 L 2.09375 -2.359375 L 2.09375 -1.171875 L 5.296875 -1.171875 L 5.296875 0 L 0.59375 0 L 0.59375 -5.890625 L 5.203125 -5.890625 Z M 5.203125 -4.71875 "/></g></g></g><g fill="#d62a2e" fill-opacity="1"><g transform="translate(127.800812, 320.495425)"><g/></g></g><g fill="#d62a2e" fill-opacity="1"><g transform="translate(132.144479, 320.495425)"><g><path d="M 0.59375 -5.890625 L 3.125 -5.890625 C 4.050781 -5.890625 4.800781 -5.617188 5.375 -5.078125 C 5.957031 -4.535156 6.25 -3.828125 6.25 -2.953125 C 6.25 -2.078125 5.953125 -1.363281 5.359375 -0.8125 C 4.773438 -0.269531 4.007812 0 3.0625 0 L 0.59375 0 Z M 2.09375 -4.703125 L 2.09375 -1.203125 L 3.15625 -1.203125 C 3.613281 -1.203125 3.988281 -1.363281 4.28125 -1.6875 C 4.582031 -2.007812 4.734375 -2.425781 4.734375 -2.9375 C 4.734375 -3.457031 4.578125 -3.878906 4.265625 -4.203125 C 3.960938 -4.535156 3.570312 -4.703125 3.09375 -4.703125 Z M 2.09375 -4.703125 "/></g></g></g><g fill="#d62a2e" fill-opacity="1"><g transform="translate(140.991766, 320.495425)"><g><path d="M 5.203125 -4.71875 L 2.09375 -4.71875 L 2.09375 -3.546875 L 4.90625 -3.546875 L 4.90625 -2.359375 L 2.09375 -2.359375 L 2.09375 -1.171875 L 5.296875 -1.171875 L 5.296875 0 L 0.59375 0 L 0.59375 -5.890625 L 5.203125 -5.890625 Z M 5.203125 -4.71875 "/></g></g></g><g fill="#d62a2e" fill-opacity="1"><g transform="translate(149.056177, 320.495425)"><g/></g></g><g fill="#d62a2e" fill-opacity="1"><g transform="translate(153.399844, 320.495425)"><g><path d="M 0.59375 -5.890625 L 3.15625 -5.890625 C 3.90625 -5.890625 4.488281 -5.710938 4.90625 -5.359375 C 5.320312 -5.003906 5.53125 -4.5 5.53125 -3.84375 C 5.53125 -3.144531 5.320312 -2.601562 4.90625 -2.21875 C 4.488281 -1.84375 3.90625 -1.65625 3.15625 -1.65625 L 2.09375 -1.65625 L 2.09375 0 L 0.59375 0 Z M 2.09375 -4.71875 L 2.09375 -2.84375 L 3.078125 -2.84375 C 3.410156 -2.84375 3.664062 -2.921875 3.84375 -3.078125 C 4.03125 -3.242188 4.125 -3.484375 4.125 -3.796875 C 4.125 -4.097656 4.03125 -4.328125 3.84375 -4.484375 C 3.664062 -4.640625 3.410156 -4.71875 3.078125 -4.71875 Z M 2.09375 -4.71875 "/></g></g></g><g fill="#d62a2e" fill-opacity="1"><g transform="translate(161.514767, 320.495425)"><g><path d="M 2.09375 -1.25 L 4.59375 -1.25 L 4.59375 0 L 0.59375 0 L 0.59375 -5.890625 L 2.09375 -5.890625 Z M 2.09375 -1.25 "/></g></g></g><g fill="#d62a2e" fill-opacity="1"><g transform="translate(168.619527, 320.495425)"><g><path d="M 4.5 -1.09375 L 1.921875 -1.09375 L 1.5 0 L -0.046875 0 L 2.5 -5.890625 L 4.046875 -5.890625 L 6.53125 0 L 4.921875 0 Z M 4.0625 -2.21875 L 3.21875 -4.40625 L 2.359375 -2.21875 Z M 4.0625 -2.21875 "/></g></g></g><g fill="#d62a2e" fill-opacity="1"><g transform="translate(177.49207, 320.495425)"><g><path d="M 3.359375 -5.953125 C 3.796875 -5.953125 4.222656 -5.859375 4.640625 -5.671875 C 5.066406 -5.492188 5.429688 -5.253906 5.734375 -4.953125 L 4.859375 -3.921875 C 4.671875 -4.160156 4.441406 -4.347656 4.171875 -4.484375 C 3.898438 -4.617188 3.632812 -4.6875 3.375 -4.6875 C 2.90625 -4.6875 2.515625 -4.519531 2.203125 -4.1875 C 1.890625 -3.863281 1.734375 -3.460938 1.734375 -2.984375 C 1.734375 -2.484375 1.890625 -2.066406 2.203125 -1.734375 C 2.515625 -1.410156 2.90625 -1.25 3.375 -1.25 C 3.625 -1.25 3.878906 -1.304688 4.140625 -1.421875 C 4.410156 -1.546875 4.648438 -1.71875 4.859375 -1.9375 L 5.734375 -1.015625 C 5.410156 -0.679688 5.03125 -0.414062 4.59375 -0.21875 C 4.164062 -0.03125 3.734375 0.0625 3.296875 0.0625 C 2.410156 0.0625 1.671875 -0.222656 1.078125 -0.796875 C 0.492188 -1.378906 0.203125 -2.101562 0.203125 -2.96875 C 0.203125 -3.8125 0.5 -4.519531 1.09375 -5.09375 C 1.695312 -5.664062 2.453125 -5.953125 3.359375 -5.953125 Z M 3.359375 -5.953125 "/></g></g></g><g fill="#d62a2e" fill-opacity="1"><g transform="translate(185.708012, 320.495425)"><g><path d="M 5.203125 -4.71875 L 2.09375 -4.71875 L 2.09375 -3.546875 L 4.90625 -3.546875 L 4.90625 -2.359375 L 2.09375 -2.359375 L 2.09375 -1.171875 L 5.296875 -1.171875 L 5.296875 0 L 0.59375 0 L 0.59375 -5.890625 L 5.203125 -5.890625 Z M 5.203125 -4.71875 "/></g></g></g><g fill="#d62a2e" fill-opacity="1"><g transform="translate(193.772429, 320.495425)"><g><path d="M 7.0625 0 L 5.75 0 L 5.734375 -3.828125 L 4.328125 -0.59375 L 3.34375 -0.59375 L 1.921875 -3.828125 L 1.921875 0 L 0.59375 0 L 0.59375 -5.90625 L 2.234375 -5.90625 L 3.828125 -2.390625 L 5.4375 -5.90625 L 7.0625 -5.90625 Z M 7.0625 0 "/></g></g></g><g fill="#d62a2e" fill-opacity="1"><g transform="translate(203.823487, 320.495425)"><g><path d="M 5.203125 -4.71875 L 2.09375 -4.71875 L 2.09375 -3.546875 L 4.90625 -3.546875 L 4.90625 -2.359375 L 2.09375 -2.359375 L 2.09375 -1.171875 L 5.296875 -1.171875 L 5.296875 0 L 0.59375 0 L 0.59375 -5.890625 L 5.203125 -5.890625 Z M 5.203125 -4.71875 "/></g></g></g><g fill="#d62a2e" fill-opacity="1"><g transform="translate(211.887904, 320.495425)"><g><path d="M 6.03125 0 L 4.703125 0 L 2 -3.625 L 2 0 L 0.59375 0 L 0.59375 -5.890625 L 1.90625 -5.890625 L 4.625 -2.25 L 4.625 -5.890625 L 6.03125 -5.890625 Z M 6.03125 0 "/></g></g></g><g fill="#d62a2e" fill-opacity="1"><g transform="translate(220.895135, 320.495425)"><g><path d="M 5.09375 -4.6875 L 3.3125 -4.6875 L 3.3125 0 L 1.8125 0 L 1.8125 -4.6875 L 0.0625 -4.6875 L 0.0625 -5.90625 L 5.09375 -5.90625 Z M 5.09375 -4.6875 "/></g></g></g><g fill="#d62a2e" fill-opacity="1"><g transform="translate(232.614595, 320.495425)"><g><path d="M 5.203125 -4.71875 L 2.09375 -4.71875 L 2.09375 -3.546875 L 4.90625 -3.546875 L 4.90625 -2.359375 L 2.09375 -2.359375 L 2.09375 -1.171875 L 5.296875 -1.171875 L 5.296875 0 L 0.59375 0 L 0.59375 -5.890625 L 5.203125 -5.890625 Z M 5.203125 -4.71875 "/></g></g></g><g fill="#d62a2e" fill-opacity="1"><g transform="translate(240.679009, 320.495425)"><g><path d="M 5.09375 -4.6875 L 3.3125 -4.6875 L 3.3125 0 L 1.8125 0 L 1.8125 -4.6875 L 0.0625 -4.6875 L 0.0625 -5.90625 L 5.09375 -5.90625 Z M 5.09375 -4.6875 "/></g></g></g><g fill="#d62a2e" fill-opacity="1"><g transform="translate(249.916262, 320.495425)"><g><path d="M 0.59375 -5.890625 L 3.125 -5.890625 C 4.050781 -5.890625 4.800781 -5.617188 5.375 -5.078125 C 5.957031 -4.535156 6.25 -3.828125 6.25 -2.953125 C 6.25 -2.078125 5.953125 -1.363281 5.359375 -0.8125 C 4.773438 -0.269531 4.007812 0 3.0625 0 L 0.59375 0 Z M 2.09375 -4.703125 L 2.09375 -1.203125 L 3.15625 -1.203125 C 3.613281 -1.203125 3.988281 -1.363281 4.28125 -1.6875 C 4.582031 -2.007812 4.734375 -2.425781 4.734375 -2.9375 C 4.734375 -3.457031 4.578125 -3.878906 4.265625 -4.203125 C 3.960938 -4.535156 3.570312 -4.703125 3.09375 -4.703125 Z M 2.09375 -4.703125 "/></g></g></g><g fill="#d62a2e" fill-opacity="1"><g transform="translate(258.763551, 320.495425)"><g><path d="M 1.03125 -5.90625 C 1.21875 -5.90625 1.378906 -5.84375 1.515625 -5.71875 C 1.648438 -5.59375 1.71875 -5.425781 1.71875 -5.21875 C 1.71875 -5.019531 1.65625 -4.832031 1.53125 -4.65625 L 0.921875 -3.765625 L 0.234375 -3.765625 L 0.609375 -4.65625 C 0.421875 -4.78125 0.328125 -4.960938 0.328125 -5.203125 C 0.328125 -5.410156 0.390625 -5.578125 0.515625 -5.703125 C 0.648438 -5.835938 0.820312 -5.90625 1.03125 -5.90625 Z M 1.03125 -5.90625 "/></g></g></g><g fill="#d62a2e" fill-opacity="1"><g transform="translate(263.182971, 320.495425)"><g><path d="M 2.09375 0 L 0.59375 0 L 0.59375 -5.890625 L 2.09375 -5.890625 Z M 2.09375 0 "/></g></g></g><g fill="#d62a2e" fill-opacity="1"><g transform="translate(268.250579, 320.495425)"><g><path d="M 6.03125 0 L 4.703125 0 L 2 -3.625 L 2 0 L 0.59375 0 L 0.59375 -5.890625 L 1.90625 -5.890625 L 4.625 -2.25 L 4.625 -5.890625 L 6.03125 -5.890625 Z M 6.03125 0 "/></g></g></g><g fill="#d62a2e" fill-opacity="1"><g transform="translate(277.257807, 320.495425)"><g><path d="M 5.09375 -4.6875 L 3.3125 -4.6875 L 3.3125 0 L 1.8125 0 L 1.8125 -4.6875 L 0.0625 -4.6875 L 0.0625 -5.90625 L 5.09375 -5.90625 Z M 5.09375 -4.6875 "/></g></g></g><g fill="#d62a2e" fill-opacity="1"><g transform="translate(284.791884, 320.495425)"><g><path d="M 4.390625 -7.359375 L 3.296875 -6.40625 L 2.1875 -6.40625 L 3.078125 -7.828125 Z M 5.203125 -4.71875 L 2.09375 -4.71875 L 2.09375 -3.546875 L 4.90625 -3.546875 L 4.90625 -2.359375 L 2.09375 -2.359375 L 2.09375 -1.171875 L 5.296875 -1.171875 L 5.296875 0 L 0.59375 0 L 0.59375 -5.890625 L 5.203125 -5.890625 Z M 5.203125 -4.71875 "/></g></g></g><g fill="#d62a2e" fill-opacity="1"><g transform="translate(292.856298, 320.495425)"><g><path d="M 4.5 -3 L 5.796875 -3 L 5.796875 -0.703125 C 5.484375 -0.472656 5.097656 -0.285156 4.640625 -0.140625 C 4.191406 -0.00390625 3.765625 0.0625 3.359375 0.0625 C 2.453125 0.0625 1.695312 -0.222656 1.09375 -0.796875 C 0.5 -1.367188 0.203125 -2.085938 0.203125 -2.953125 C 0.203125 -3.804688 0.507812 -4.519531 1.125 -5.09375 C 1.75 -5.664062 2.523438 -5.953125 3.453125 -5.953125 C 3.890625 -5.953125 4.320312 -5.867188 4.75 -5.703125 C 5.1875 -5.546875 5.554688 -5.332031 5.859375 -5.0625 L 5.015625 -4.046875 C 4.804688 -4.242188 4.5625 -4.398438 4.28125 -4.515625 C 4 -4.628906 3.71875 -4.6875 3.4375 -4.6875 C 2.957031 -4.6875 2.550781 -4.519531 2.21875 -4.1875 C 1.894531 -3.851562 1.734375 -3.441406 1.734375 -2.953125 C 1.734375 -2.453125 1.898438 -2.03125 2.234375 -1.6875 C 2.566406 -1.351562 2.976562 -1.1875 3.46875 -1.1875 C 3.78125 -1.1875 4.125 -1.28125 4.5 -1.46875 Z M 4.5 -3 "/></g></g></g><g fill="#d62a2e" fill-opacity="1"><g transform="translate(301.501551, 320.495425)"><g><path d="M 4.140625 0 L 3.265625 -1.65625 L 2.09375 -1.65625 L 2.09375 0 L 0.59375 0 L 0.59375 -5.890625 L 3.21875 -5.890625 C 4 -5.890625 4.601562 -5.710938 5.03125 -5.359375 C 5.457031 -5.003906 5.671875 -4.5 5.671875 -3.84375 C 5.671875 -2.925781 5.316406 -2.296875 4.609375 -1.953125 L 5.84375 0 Z M 2.09375 -2.84375 L 3.21875 -2.84375 C 3.550781 -2.84375 3.804688 -2.921875 3.984375 -3.078125 C 4.160156 -3.242188 4.25 -3.484375 4.25 -3.796875 C 4.25 -4.097656 4.160156 -4.328125 3.984375 -4.484375 C 3.804688 -4.640625 3.550781 -4.71875 3.21875 -4.71875 L 2.09375 -4.71875 Z M 2.09375 -2.84375 "/></g></g></g><g fill="#d62a2e" fill-opacity="1"><g transform="translate(309.986863, 320.495425)"><g><path d="M 4.5 -1.09375 L 1.921875 -1.09375 L 1.5 0 L -0.046875 0 L 2.5 -5.890625 L 4.046875 -5.890625 L 6.53125 0 L 4.921875 0 Z M 4.0625 -2.21875 L 3.21875 -4.40625 L 2.359375 -2.21875 Z M 4.0625 -2.21875 "/></g></g></g><g fill="#d62a2e" fill-opacity="1"><g transform="translate(318.859401, 320.495425)"><g><path d="M 5.09375 -4.6875 L 3.3125 -4.6875 L 3.3125 0 L 1.8125 0 L 1.8125 -4.6875 L 0.0625 -4.6875 L 0.0625 -5.90625 L 5.09375 -5.90625 Z M 5.09375 -4.6875 "/></g></g></g><g fill="#d62a2e" fill-opacity="1"><g transform="translate(326.393474, 320.495425)"><g><path d="M 2.09375 0 L 0.59375 0 L 0.59375 -5.890625 L 2.09375 -5.890625 Z M 2.09375 0 "/></g></g></g><g fill="#d62a2e" fill-opacity="1"><g transform="translate(331.461081, 320.495425)"><g><path d="M 3.390625 -5.953125 C 4.304688 -5.953125 5.066406 -5.664062 5.671875 -5.09375 C 6.273438 -4.519531 6.578125 -3.804688 6.578125 -2.953125 C 6.578125 -2.097656 6.269531 -1.378906 5.65625 -0.796875 C 5.050781 -0.222656 4.289062 0.0625 3.375 0.0625 C 2.46875 0.0625 1.710938 -0.222656 1.109375 -0.796875 C 0.503906 -1.367188 0.203125 -2.085938 0.203125 -2.953125 C 0.203125 -3.816406 0.503906 -4.53125 1.109375 -5.09375 C 1.710938 -5.664062 2.472656 -5.953125 3.390625 -5.953125 Z M 3.40625 -4.6875 C 2.945312 -4.6875 2.550781 -4.519531 2.21875 -4.1875 C 1.894531 -3.851562 1.734375 -3.4375 1.734375 -2.9375 C 1.734375 -2.445312 1.894531 -2.03125 2.21875 -1.6875 C 2.550781 -1.351562 2.941406 -1.1875 3.390625 -1.1875 C 3.847656 -1.1875 4.234375 -1.351562 4.546875 -1.6875 C 4.867188 -2.03125 5.03125 -2.445312 5.03125 -2.9375 C 5.03125 -3.4375 4.867188 -3.851562 4.546875 -4.1875 C 4.234375 -4.519531 3.851562 -4.6875 3.40625 -4.6875 Z M 3.40625 -4.6875 "/></g></g></g><g fill="#d62a2e" fill-opacity="1"><g transform="translate(340.62825, 320.495425)"><g><path d="M 6.03125 0 L 4.703125 0 L 2 -3.625 L 2 0 L 0.59375 0 L 0.59375 -5.890625 L 1.90625 -5.890625 L 4.625 -2.25 L 4.625 -5.890625 L 6.03125 -5.890625 Z M 6.03125 0 "/></g></g></g></svg>